<?xml version="1.0" encoding="UTF-8"?>
<svg width="134px" height="32px" viewBox="0 0 134 32" version="1.1" xmlns="http://www.w3.org/2000/svg" xmlns:xlink="http://www.w3.org/1999/xlink">
    <title>logo-orchestrator</title>
    <g id="🖼-Template-set-ups" stroke="none" stroke-width="1" fill="none" fill-rule="evenodd">
        <g id="1.2.0-Processes-NewProcess" transform="translate(-16.000000, -16.000000)" fill="#FFFFFF" fill-rule="nonzero">
            <g id="logo-orchestrator" transform="translate(16.000000, 16.000000)">
                <g id="logo">
                    <path d="M39.556,0 C42.842,0 45.446,2.64615385 45.446,5.96923077 L45.446,13.3538462 C45.446,16.6769231 48.112,19.3230769 51.336,19.3230769 L57.288,19.3230769 C59.892,19.3230769 62,21.4769231 62,24.1230769 L62,27.2 C62,29.8461538 59.892,32 57.288,32 L50.158,32 C47.554,32 45.446,29.8461538 45.446,27.2 L45.446,25.2923077 C45.446,21.9692308 42.78,19.3230769 39.556,19.3230769 L5.89,19.3230769 C2.604,19.3230769 0,16.6769231 0,13.3538462 L0,5.96923077 C0,2.64615385 2.666,0 5.89,0 L39.556,0 Z M20.894,5.23076923 C20.274,5.23076923 19.902,5.53846154 19.902,6.21538462 L19.902,10.0307692 C19.902,11.3846154 19.096,12.1846154 17.98,12.1846154 C16.864,12.1846154 16.058,11.3846154 16.058,10.0307692 L16.058,6.21538462 C16.058,5.53846154 15.748,5.23076923 15.066,5.23076923 C14.446,5.23076923 14.074,5.53846154 14.074,6.21538462 L14.074,10.0307692 C14.074,12.5538462 15.748,14.1538462 17.98,14.1538462 C20.212,14.1538462 21.886,12.5538462 21.886,10.0307692 L21.886,6.21538462 C21.886,5.53846154 21.576,5.23076923 20.894,5.23076923 Z M8.866,5.16923077 C7.006,5.16923077 5.642,6.21538462 5.642,7.75384615 C5.642,9.04615385 6.572,9.78461538 7.564,10.0923077 L8.99,10.5230769 C9.734,10.7692308 10.292,10.9538462 10.292,11.3846154 C10.168,12 9.424,12.3076923 8.804,12.3076923 C8.06,12.3076923 7.502,12.1230769 7.13,12 C6.82,11.8769231 6.572,11.8153846 6.262,11.8153846 C5.704,11.8153846 5.394,12.1846154 5.394,12.7384615 C5.394,13.6615385 7.254,14.1538462 8.866,14.1538462 C10.788,14.1538462 12.276,13.1076923 12.276,11.5076923 C12.276,10.0307692 11.284,9.35384615 10.23,8.98461538 L8.618,8.49230769 C7.936,8.30769231 7.626,8.12307692 7.626,7.69230769 C7.626,7.26153846 8.308,7.01538462 8.866,7.01538462 C9.548,7.01538462 10.044,7.2 10.416,7.32307692 C10.664,7.38461538 10.912,7.50769231 11.222,7.50769231 C11.718,7.50769231 12.028,7.13846154 12.028,6.58461538 C12.028,5.66153846 10.354,5.16923077 8.866,5.16923077 Z M38.936,5.29230769 L34.224,5.29230769 C33.604,5.29230769 33.232,5.6 33.232,6.27692308 L33.232,13.0461538 C33.232,13.7230769 33.542,14.0307692 34.224,14.0307692 C34.844,14.0307692 35.216,13.7230769 35.216,13.0461538 L35.216,10.8923077 C35.216,10.9408907 36.6844211,10.9511187 37.3027036,10.953272 L37.572,10.9538462 C38.192,10.9538462 38.502,10.6461538 38.502,10.0307692 C38.502,9.41538462 38.192,9.04615385 37.572,9.04615385 L35.216,9.04615385 L35.216,7.2 L38.936,7.2 C39.556,7.2 39.866,6.89230769 39.866,6.21538462 C39.866,5.6 39.556,5.29230769 38.936,5.29230769 Z M28.024,5.29230769 L25.234,5.29230769 C24.614,5.29230769 24.242,5.6 24.242,6.27692308 L24.242,13.0461538 C24.242,13.7230769 24.552,14.0307692 25.234,14.0307692 C25.854,14.0307692 26.226,13.7230769 26.226,13.0461538 L26.226,11.2615385 L27.9,11.2615385 L28.892,13.3538462 C29.078,13.7846154 29.326,13.9692308 29.698,13.9692308 C30.194,13.9692308 30.814,13.6 30.814,13.0461538 C30.814,12.8615385 30.752,12.6769231 30.69,12.4923077 L29.822,10.7692308 C30.69,10.3384615 31.186,9.47692308 31.186,8.36923077 C31.186,6.58461538 29.884,5.29230769 28.024,5.29230769 Z M27.776,7.2 C28.52,7.2 29.14,7.56923077 29.14,8.36923077 C29.14,9.16923077 28.52,9.53846154 27.776,9.53846154 L26.102,9.53846154 L26.102,7.2 L27.776,7.2 Z" id="Combined-Shape"></path>
                </g>
                <g id="Orchestrator" transform="translate(50.000000, 4.000000)">
                    <path d="M9.36824867,4.99288087 C9.36824867,1.85097295 7.35721123,0 4.68412434,0 C2.00605963,0 0,1.85097295 0,4.99288087 C0,8.13004271 2.00605963,9.98576175 4.68412434,9.98576175 C7.35721123,9.98576175 9.36824867,8.1347888 9.36824867,4.99288087 Z M7.51152351,4.99288087 C7.51152351,7.20455624 6.3467147,8.40531561 4.68412434,8.40531561 C3.02651179,8.40531561 1.85672516,7.20455624 1.85672516,4.99288087 C1.85672516,2.78120551 3.02651179,1.58044613 4.68412434,1.58044613 C6.3467147,1.58044613 7.51152351,2.78120551 7.51152351,4.99288087 Z" id="Shape"></path>
                    <path d="M10.7904918,9.85287138 L12.592461,9.85287138 L12.592461,5.5671571 C12.592461,4.64641671 13.319222,3.99620313 14.2600291,3.99620313 C14.5537203,3.99620313 14.777722,4.06264832 14.9718568,4.14807784 L15.5293721,2.72425249 C15.2605701,2.56288562 14.9171008,2.45847176 14.5039421,2.45847176 C13.6228688,2.45847176 12.8961077,2.93308021 12.61735,3.77788325 L12.537705,3.77788325 L12.537705,2.56288562 L10.7904918,2.56288562 L10.7904918,9.85287138 Z" id="Path"></path>
                    <path d="M19.3558949,9.99525392 C21.2773317,9.99525392 22.5018743,8.90840057 22.6312975,7.36117703 L20.9089733,7.36117703 C20.7546611,8.14428097 20.162301,8.59515899 19.3708284,8.59515899 C18.2458421,8.59515899 17.519081,7.69814903 17.519081,6.2078785 C17.519081,4.73659231 18.2607755,3.8538206 19.3708284,3.8538206 C20.2369683,3.8538206 20.7695945,4.38538206 20.9089733,5.08780256 L22.6312975,5.08780256 C22.5068521,3.50735643 21.2126201,2.46796393 19.3459393,2.46796393 C17.1059223,2.46796393 15.6922228,4.01044139 15.6922228,6.23635501 C15.6922228,8.44328429 17.0710776,9.99525392 19.3558949,9.99525392 Z" id="Path"></path>
                    <path d="M25.6663502,5.58139535 C25.6663502,4.52776459 26.3532887,3.92026578 27.3189849,3.92026578 C28.2647698,3.92026578 28.8222852,4.494542 28.8222852,5.47698149 L28.8222852,9.85287138 L30.6242543,9.85287138 L30.6242543,5.21120076 C30.6242543,3.45040342 29.5789131,2.46796393 27.99099,2.46796393 C26.8162255,2.46796393 26.0695532,2.97579497 25.7161283,3.80161367 L25.6265276,3.80161367 L25.6265276,0.132890365 L23.864381,0.132890365 L23.864381,9.85287138 L25.6663502,9.85287138 L25.6663502,5.58139535 Z" id="Path"></path>
                    <path d="M35.5906999,9.99525392 C37.3727578,9.99525392 38.5973004,9.16468913 38.9158806,7.89748458 L37.233379,7.71713336 C36.989466,8.33412435 36.3921282,8.65685809 35.615589,8.65685809 C34.4507801,8.65685809 33.6792188,7.92596108 33.6642853,6.67774086 L38.9905478,6.67774086 L38.9905478,6.15092549 C38.9905478,3.59278595 37.3777356,2.46796393 35.4961214,2.46796393 C33.3058826,2.46796393 31.8772496,4.00094922 31.8772496,6.25059326 C31.8772496,8.53820598 33.2859713,9.99525392 35.5906999,9.99525392 Z M33.6692631,5.51969625 C33.7240191,4.58946369 34.4458023,3.80635975 35.5210105,3.80635975 C36.5563961,3.80635975 37.2532902,4.52776459 37.2632459,5.51969625 L33.6692631,5.51969625 Z" id="Shape"></path>
                    <path d="M46.306522,4.48979592 C46.0576312,3.25581395 45.0222456,2.46796393 43.2302321,2.46796393 C41.3884403,2.46796393 40.1340308,3.33175131 40.1390087,4.6796393 C40.1340308,5.74276222 40.8209694,6.44518272 42.2894249,6.73469388 L43.5936126,6.99572852 C44.2954846,7.14285714 44.6240204,7.41338396 44.6240204,7.82629331 C44.6240204,8.32463218 44.0565494,8.69957285 43.2003652,8.69957285 C42.3740478,8.69957285 41.8364437,8.35785477 41.6821314,7.70289511 L39.9249626,7.86426198 C40.1489643,9.20265781 41.3287065,9.99525392 43.205343,9.99525392 C45.1168241,9.99525392 46.4658121,9.0507831 46.4707899,7.66967252 C46.4658121,6.63028002 45.7639401,5.9943047 44.3203736,5.69530138 L43.016186,5.42952065 C42.2396468,5.26340769 41.9310222,5.00711913 41.936,4.58471761 C41.9310222,4.09112482 42.503471,3.74940674 43.2551211,3.74940674 C44.0864163,3.74940674 44.5244641,4.18130043 44.6638429,4.66065496 L46.306522,4.48979592 Z" id="Path"></path>
                    <path d="M51.5268353,2.56288562 L50.0185572,2.56288562 L50.0185572,0.816326531 L48.216588,0.816326531 L48.216588,2.56288562 L47.1314242,2.56288562 L47.1314242,3.89178927 L48.216588,3.89178927 L48.216588,7.94494542 C48.2066324,9.31656383 49.2519736,9.99050783 50.6059394,9.95253916 C51.1186544,9.9383009 51.4720793,9.84337921 51.6662141,9.78168011 L51.3625674,8.43853821 C51.2630111,8.46226863 51.0589206,8.50498339 50.8349189,8.50498339 C50.3819377,8.50498339 50.0185572,8.35310869 50.0185572,7.66018035 L50.0185572,3.89178927 L51.5268353,3.89178927 L51.5268353,2.56288562 Z" id="Path"></path>
                    <path d="M52.7848052,9.85287138 L54.5867744,9.85287138 L54.5867744,5.5671571 C54.5867744,4.64641671 55.3135354,3.99620313 56.2543426,3.99620313 C56.5480337,3.99620313 56.7720354,4.06264832 56.9661702,4.14807784 L57.5236855,2.72425249 C57.2548835,2.56288562 56.9114142,2.45847176 56.4982555,2.45847176 C55.6171822,2.45847176 54.8904211,2.93308021 54.6116635,3.77788325 L54.5320184,3.77788325 L54.5320184,2.56288562 L52.7848052,2.56288562 L52.7848052,9.85287138 Z" id="Path"></path>
                    <path d="M60.3894901,10 C61.5891436,10 62.3059491,9.46369245 62.6344849,8.85144756 L62.6942187,8.85144756 L62.6942187,9.85287138 L64.4264984,9.85287138 L64.4264984,4.97389654 C64.4264984,3.04698624 62.7788415,2.46796393 61.3203416,2.46796393 C59.7125072,2.46796393 58.478009,3.15140009 58.0797837,4.48030375 L59.7622854,4.7081158 C59.9414867,4.20977693 60.4492239,3.78262933 61.3302972,3.78262933 C62.1665702,3.78262933 62.6245293,4.1907926 62.6245293,4.90745135 L62.6245293,4.93592786 C62.6245293,5.42952065 62.0819474,5.45325107 60.7329594,5.59088752 C59.2495704,5.74276222 57.830893,6.16516374 57.830893,7.80730897 C57.830893,9.24062648 58.9309902,10 60.3894901,10 Z M60.8574048,8.73754153 C60.1057546,8.73754153 59.5681506,8.4100617 59.5681506,7.77883246 C59.5681506,7.11912672 60.1704662,6.84385382 60.9768723,6.73469388 C61.4497648,6.67299478 62.3955497,6.55908875 62.6295071,6.37873754 L62.6295071,7.23777883 C62.6295071,8.04935928 61.9425685,8.73754153 60.8574048,8.73754153 Z" id="Shape"></path>
                    <path d="M69.81108,2.56288562 L68.3028019,2.56288562 L68.3028019,0.816326531 L66.5008327,0.816326531 L66.5008327,2.56288562 L65.4156689,2.56288562 L65.4156689,3.89178927 L66.5008327,3.89178927 L66.5008327,7.94494542 C66.4908771,9.31656383 67.5362183,9.99050783 68.8901841,9.95253916 C69.4028991,9.9383009 69.756324,9.84337921 69.9504588,9.78168011 L69.6468121,8.43853821 C69.5472557,8.46226863 69.3431653,8.50498339 69.1191636,8.50498339 C68.6661824,8.50498339 68.3028019,8.35310869 68.3028019,7.66018035 L68.3028019,3.89178927 L69.81108,3.89178927 L69.81108,2.56288562 Z" id="Path"></path>
                    <path d="M74.3245411,9.99525392 C76.5645581,9.99525392 77.9882133,8.49074514 77.9882133,6.23635501 C77.9882133,3.97721879 76.5645581,2.46796393 74.3245411,2.46796393 C72.0845242,2.46796393 70.6608689,3.97721879 70.6608689,6.23635501 C70.6608689,8.49074514 72.0845242,9.99525392 74.3245411,9.99525392 Z M74.3344967,8.61888942 C73.0950207,8.61888942 72.4877272,7.56525866 72.4877272,6.23160892 C72.4877272,4.89795918 73.0950207,3.83009018 74.3344967,3.83009018 C75.5540615,3.83009018 76.161355,4.89795918 76.161355,6.23160892 C76.161355,7.56525866 75.5540615,8.61888942 74.3344967,8.61888942 Z" id="Shape"></path>
                    <path d="M79.2611197,9.85287138 L81.0630889,9.85287138 L81.0630889,5.5671571 C81.0630889,4.64641671 81.7898499,3.99620313 82.7306571,3.99620313 C83.0243482,3.99620313 83.2483499,4.06264832 83.4424847,4.14807784 L84,2.72425249 C83.731198,2.56288562 83.3877287,2.45847176 82.97457,2.45847176 C82.0934967,2.45847176 81.3667356,2.93308021 81.087978,3.77788325 L81.0083329,3.77788325 L81.0083329,2.56288562 L79.2611197,2.56288562 L79.2611197,9.85287138 Z" id="Path"></path>
                </g>
            </g>
        </g>
    </g>
</svg>